<?xml version="1.0" encoding="utf-8" standalone="no"?>
<!DOCTYPE svg PUBLIC "-//W3C//DTD SVG 1.1//EN"
  "http://www.w3.org/Graphics/SVG/1.1/DTD/svg11.dtd">
<svg xmlns:xlink="http://www.w3.org/1999/xlink" width="864pt" height="432pt" viewBox="0 0 864 432" xmlns="http://www.w3.org/2000/svg" version="1.1">
 <metadata>
  <rdf:RDF xmlns:dc="http://purl.org/dc/elements/1.1/" xmlns:cc="http://creativecommons.org/ns#" xmlns:rdf="http://www.w3.org/1999/02/22-rdf-syntax-ns#">
   <cc:Work>
    <dc:type rdf:resource="http://purl.org/dc/dcmitype/StillImage"/>
    <dc:date>2026-03-12T16:53:47.591733</dc:date>
    <dc:format>image/svg+xml</dc:format>
    <dc:creator>
     <cc:Agent>
      <dc:title>Matplotlib v3.10.3, https://matplotlib.org/</dc:title>
     </cc:Agent>
    </dc:creator>
   </cc:Work>
  </rdf:RDF>
 </metadata>
 <defs>
  <style type="text/css">*{stroke-linejoin: round; stroke-linecap: butt}</style>
 </defs>
 <g id="figure_1">
  <g id="patch_1">
   <path d="M 0 432 
L 864 432 
L 864 0 
L 0 0 
z
" style="fill: #ffffff"/>
  </g>
  <g id="axes_1">
   <g id="patch_2">
    <path d="M 49.5 384.66 
L 814.5 384.66 
L 814.5 27.6 
L 49.5 27.6 
z
" style="fill: #ffffff"/>
   </g>
   <g id="matplotlib.axis_1">
    <g id="xtick_1">
     <g id="line2d_1">
      <path d="M 84.272727 384.66 
L 84.272727 27.6 
" clip-path="url(#p37828bacea)" style="fill: none; stroke: #cccccc; stroke-linecap: round"/>
     </g>
     <g id="text_1">
      <!-- 1970 -->
      <g style="fill: #262626" transform="translate(72.038665 402.033594) scale(0.11 -0.11)">
       <defs>
        <path id="ArialMT-31" d="M 2384 0 
L 1822 0 
L 1822 3584 
Q 1619 3391 1289 3197 
Q 959 3003 697 2906 
L 697 3450 
Q 1169 3672 1522 3987 
Q 1875 4303 2022 4600 
L 2384 4600 
L 2384 0 
z
" transform="scale(0.015625)"/>
        <path id="ArialMT-39" d="M 350 1059 
L 891 1109 
Q 959 728 1153 556 
Q 1347 384 1650 384 
Q 1909 384 2104 503 
Q 2300 622 2425 820 
Q 2550 1019 2634 1356 
Q 2719 1694 2719 2044 
Q 2719 2081 2716 2156 
Q 2547 1888 2255 1720 
Q 1963 1553 1622 1553 
Q 1053 1553 659 1965 
Q 266 2378 266 3053 
Q 266 3750 677 4175 
Q 1088 4600 1706 4600 
Q 2153 4600 2523 4359 
Q 2894 4119 3086 3673 
Q 3278 3228 3278 2384 
Q 3278 1506 3087 986 
Q 2897 466 2520 194 
Q 2144 -78 1638 -78 
Q 1100 -78 759 220 
Q 419 519 350 1059 
z
M 2653 3081 
Q 2653 3566 2395 3850 
Q 2138 4134 1775 4134 
Q 1400 4134 1122 3828 
Q 844 3522 844 3034 
Q 844 2597 1108 2323 
Q 1372 2050 1759 2050 
Q 2150 2050 2401 2323 
Q 2653 2597 2653 3081 
z
" transform="scale(0.015625)"/>
        <path id="ArialMT-37" d="M 303 3981 
L 303 4522 
L 3269 4522 
L 3269 4084 
Q 2831 3619 2401 2847 
Q 1972 2075 1738 1259 
Q 1569 684 1522 0 
L 944 0 
Q 953 541 1156 1306 
Q 1359 2072 1739 2783 
Q 2119 3494 2547 3981 
L 303 3981 
z
" transform="scale(0.015625)"/>
        <path id="ArialMT-30" d="M 266 2259 
Q 266 3072 433 3567 
Q 600 4063 929 4331 
Q 1259 4600 1759 4600 
Q 2128 4600 2406 4451 
Q 2684 4303 2865 4023 
Q 3047 3744 3150 3342 
Q 3253 2941 3253 2259 
Q 3253 1453 3087 958 
Q 2922 463 2592 192 
Q 2263 -78 1759 -78 
Q 1097 -78 719 397 
Q 266 969 266 2259 
z
M 844 2259 
Q 844 1131 1108 757 
Q 1372 384 1759 384 
Q 2147 384 2411 759 
Q 2675 1134 2675 2259 
Q 2675 3391 2411 3762 
Q 2147 4134 1753 4134 
Q 1366 4134 1134 3806 
Q 844 3388 844 2259 
z
" transform="scale(0.015625)"/>
       </defs>
       <use xlink:href="#ArialMT-31"/>
       <use xlink:href="#ArialMT-39" transform="translate(55.615234 0)"/>
       <use xlink:href="#ArialMT-37" transform="translate(111.230469 0)"/>
       <use xlink:href="#ArialMT-30" transform="translate(166.845703 0)"/>
      </g>
     </g>
    </g>
    <g id="text_2">
     <!-- Data -->
     <g style="fill: #262626" transform="translate(419.326875 416.809219) scale(0.12 -0.12)">
      <defs>
       <path id="ArialMT-44" d="M 494 0 
L 494 4581 
L 2072 4581 
Q 2606 4581 2888 4516 
Q 3281 4425 3559 4188 
Q 3922 3881 4101 3404 
Q 4281 2928 4281 2316 
Q 4281 1794 4159 1391 
Q 4038 988 3847 723 
Q 3656 459 3429 307 
Q 3203 156 2883 78 
Q 2563 0 2147 0 
L 494 0 
z
M 1100 541 
L 2078 541 
Q 2531 541 2789 625 
Q 3047 709 3200 863 
Q 3416 1078 3536 1442 
Q 3656 1806 3656 2325 
Q 3656 3044 3420 3430 
Q 3184 3816 2847 3947 
Q 2603 4041 2063 4041 
L 1100 4041 
L 1100 541 
z
" transform="scale(0.015625)"/>
       <path id="ArialMT-61" d="M 2588 409 
Q 2275 144 1986 34 
Q 1697 -75 1366 -75 
Q 819 -75 525 192 
Q 231 459 231 875 
Q 231 1119 342 1320 
Q 453 1522 633 1644 
Q 813 1766 1038 1828 
Q 1203 1872 1538 1913 
Q 2219 1994 2541 2106 
Q 2544 2222 2544 2253 
Q 2544 2597 2384 2738 
Q 2169 2928 1744 2928 
Q 1347 2928 1158 2789 
Q 969 2650 878 2297 
L 328 2372 
Q 403 2725 575 2942 
Q 747 3159 1072 3276 
Q 1397 3394 1825 3394 
Q 2250 3394 2515 3294 
Q 2781 3194 2906 3042 
Q 3031 2891 3081 2659 
Q 3109 2516 3109 2141 
L 3109 1391 
Q 3109 606 3145 398 
Q 3181 191 3288 0 
L 2700 0 
Q 2613 175 2588 409 
z
M 2541 1666 
Q 2234 1541 1622 1453 
Q 1275 1403 1131 1340 
Q 988 1278 909 1158 
Q 831 1038 831 891 
Q 831 666 1001 516 
Q 1172 366 1500 366 
Q 1825 366 2078 508 
Q 2331 650 2450 897 
Q 2541 1088 2541 1459 
L 2541 1666 
z
" transform="scale(0.015625)"/>
       <path id="ArialMT-74" d="M 1650 503 
L 1731 6 
Q 1494 -44 1306 -44 
Q 1000 -44 831 53 
Q 663 150 594 308 
Q 525 466 525 972 
L 525 2881 
L 113 2881 
L 113 3319 
L 525 3319 
L 525 4141 
L 1084 4478 
L 1084 3319 
L 1650 3319 
L 1650 2881 
L 1084 2881 
L 1084 941 
Q 1084 700 1114 631 
Q 1144 563 1211 522 
Q 1278 481 1403 481 
Q 1497 481 1650 503 
z
" transform="scale(0.015625)"/>
      </defs>
      <use xlink:href="#ArialMT-44"/>
      <use xlink:href="#ArialMT-61" transform="translate(72.216797 0)"/>
      <use xlink:href="#ArialMT-74" transform="translate(127.832031 0)"/>
      <use xlink:href="#ArialMT-61" transform="translate(155.615234 0)"/>
     </g>
    </g>
   </g>
   <g id="matplotlib.axis_2">
    <g id="ytick_1">
     <g id="line2d_2">
      <path d="M 49.5 308.67897 
L 814.5 308.67897 
" clip-path="url(#p37828bacea)" style="fill: none; stroke: #cccccc; stroke-linecap: round"/>
     </g>
     <g id="line2d_3">
      <defs>
       <path id="m597986507a" d="M 0 0 
L -6 0 
" style="stroke: #262626; stroke-width: 1.25"/>
      </defs>
      <g>
       <use xlink:href="#m597986507a" x="49.5" y="308.67897" style="fill: #262626; stroke: #262626; stroke-width: 1.25"/>
      </g>
     </g>
     <g id="text_3">
      <!-- 10 -->
      <g style="fill: #262626" transform="translate(27.765938 312.615767) scale(0.11 -0.11)">
       <use xlink:href="#ArialMT-31"/>
       <use xlink:href="#ArialMT-30" transform="translate(55.615234 0)"/>
      </g>
     </g>
    </g>
    <g id="ytick_2">
     <g id="line2d_4">
      <path d="M 49.5 231.015106 
L 814.5 231.015106 
" clip-path="url(#p37828bacea)" style="fill: none; stroke: #cccccc; stroke-linecap: round"/>
     </g>
     <g id="line2d_5">
      <g>
       <use xlink:href="#m597986507a" x="49.5" y="231.015106" style="fill: #262626; stroke: #262626; stroke-width: 1.25"/>
      </g>
     </g>
     <g id="text_4">
      <!-- 20 -->
      <g style="fill: #262626" transform="translate(27.765938 234.951902) scale(0.11 -0.11)">
       <defs>
        <path id="ArialMT-32" d="M 3222 541 
L 3222 0 
L 194 0 
Q 188 203 259 391 
Q 375 700 629 1000 
Q 884 1300 1366 1694 
Q 2113 2306 2375 2664 
Q 2638 3022 2638 3341 
Q 2638 3675 2398 3904 
Q 2159 4134 1775 4134 
Q 1369 4134 1125 3890 
Q 881 3647 878 3216 
L 300 3275 
Q 359 3922 746 4261 
Q 1134 4600 1788 4600 
Q 2447 4600 2831 4234 
Q 3216 3869 3216 3328 
Q 3216 3053 3103 2787 
Q 2991 2522 2730 2228 
Q 2469 1934 1863 1422 
Q 1356 997 1212 845 
Q 1069 694 975 541 
L 3222 541 
z
" transform="scale(0.015625)"/>
       </defs>
       <use xlink:href="#ArialMT-32"/>
       <use xlink:href="#ArialMT-30" transform="translate(55.615234 0)"/>
      </g>
     </g>
    </g>
    <g id="ytick_3">
     <g id="line2d_6">
      <path d="M 49.5 153.351241 
L 814.5 153.351241 
" clip-path="url(#p37828bacea)" style="fill: none; stroke: #cccccc; stroke-linecap: round"/>
     </g>
     <g id="line2d_7">
      <g>
       <use xlink:href="#m597986507a" x="49.5" y="153.351241" style="fill: #262626; stroke: #262626; stroke-width: 1.25"/>
      </g>
     </g>
     <g id="text_5">
      <!-- 30 -->
      <g style="fill: #262626" transform="translate(27.765938 157.288038) scale(0.11 -0.11)">
       <defs>
        <path id="ArialMT-33" d="M 269 1209 
L 831 1284 
Q 928 806 1161 595 
Q 1394 384 1728 384 
Q 2125 384 2398 659 
Q 2672 934 2672 1341 
Q 2672 1728 2419 1979 
Q 2166 2231 1775 2231 
Q 1616 2231 1378 2169 
L 1441 2663 
Q 1497 2656 1531 2656 
Q 1891 2656 2178 2843 
Q 2466 3031 2466 3422 
Q 2466 3731 2256 3934 
Q 2047 4138 1716 4138 
Q 1388 4138 1169 3931 
Q 950 3725 888 3313 
L 325 3413 
Q 428 3978 793 4289 
Q 1159 4600 1703 4600 
Q 2078 4600 2393 4439 
Q 2709 4278 2876 4000 
Q 3044 3722 3044 3409 
Q 3044 3113 2884 2869 
Q 2725 2625 2413 2481 
Q 2819 2388 3044 2092 
Q 3269 1797 3269 1353 
Q 3269 753 2831 336 
Q 2394 -81 1725 -81 
Q 1122 -81 723 278 
Q 325 638 269 1209 
z
" transform="scale(0.015625)"/>
       </defs>
       <use xlink:href="#ArialMT-33"/>
       <use xlink:href="#ArialMT-30" transform="translate(55.615234 0)"/>
      </g>
     </g>
    </g>
    <g id="ytick_4">
     <g id="line2d_8">
      <path d="M 49.5 75.687377 
L 814.5 75.687377 
" clip-path="url(#p37828bacea)" style="fill: none; stroke: #cccccc; stroke-linecap: round"/>
     </g>
     <g id="line2d_9">
      <g>
       <use xlink:href="#m597986507a" x="49.5" y="75.687377" style="fill: #262626; stroke: #262626; stroke-width: 1.25"/>
      </g>
     </g>
     <g id="text_6">
      <!-- 40 -->
      <g style="fill: #262626" transform="translate(27.765938 79.624174) scale(0.11 -0.11)">
       <defs>
        <path id="ArialMT-34" d="M 2069 0 
L 2069 1097 
L 81 1097 
L 81 1613 
L 2172 4581 
L 2631 4581 
L 2631 1613 
L 3250 1613 
L 3250 1097 
L 2631 1097 
L 2631 0 
L 2069 0 
z
M 2069 1613 
L 2069 3678 
L 634 1613 
L 2069 1613 
z
" transform="scale(0.015625)"/>
       </defs>
       <use xlink:href="#ArialMT-34"/>
       <use xlink:href="#ArialMT-30" transform="translate(55.615234 0)"/>
      </g>
     </g>
    </g>
    <g id="text_7">
     <!-- Entradas -->
     <g style="fill: #262626" transform="translate(21.380938 230.143125) rotate(-90) scale(0.12 -0.12)">
      <defs>
       <path id="ArialMT-45" d="M 506 0 
L 506 4581 
L 3819 4581 
L 3819 4041 
L 1113 4041 
L 1113 2638 
L 3647 2638 
L 3647 2100 
L 1113 2100 
L 1113 541 
L 3925 541 
L 3925 0 
L 506 0 
z
" transform="scale(0.015625)"/>
       <path id="ArialMT-6e" d="M 422 0 
L 422 3319 
L 928 3319 
L 928 2847 
Q 1294 3394 1984 3394 
Q 2284 3394 2536 3286 
Q 2788 3178 2913 3003 
Q 3038 2828 3088 2588 
Q 3119 2431 3119 2041 
L 3119 0 
L 2556 0 
L 2556 2019 
Q 2556 2363 2490 2533 
Q 2425 2703 2258 2804 
Q 2091 2906 1866 2906 
Q 1506 2906 1245 2678 
Q 984 2450 984 1813 
L 984 0 
L 422 0 
z
" transform="scale(0.015625)"/>
       <path id="ArialMT-72" d="M 416 0 
L 416 3319 
L 922 3319 
L 922 2816 
Q 1116 3169 1280 3281 
Q 1444 3394 1641 3394 
Q 1925 3394 2219 3213 
L 2025 2691 
Q 1819 2813 1613 2813 
Q 1428 2813 1281 2702 
Q 1134 2591 1072 2394 
Q 978 2094 978 1738 
L 978 0 
L 416 0 
z
" transform="scale(0.015625)"/>
       <path id="ArialMT-64" d="M 2575 0 
L 2575 419 
Q 2259 -75 1647 -75 
Q 1250 -75 917 144 
Q 584 363 401 755 
Q 219 1147 219 1656 
Q 219 2153 384 2558 
Q 550 2963 881 3178 
Q 1213 3394 1622 3394 
Q 1922 3394 2156 3267 
Q 2391 3141 2538 2938 
L 2538 4581 
L 3097 4581 
L 3097 0 
L 2575 0 
z
M 797 1656 
Q 797 1019 1065 703 
Q 1334 388 1700 388 
Q 2069 388 2326 689 
Q 2584 991 2584 1609 
Q 2584 2291 2321 2609 
Q 2059 2928 1675 2928 
Q 1300 2928 1048 2622 
Q 797 2316 797 1656 
z
" transform="scale(0.015625)"/>
       <path id="ArialMT-73" d="M 197 991 
L 753 1078 
Q 800 744 1014 566 
Q 1228 388 1613 388 
Q 2000 388 2187 545 
Q 2375 703 2375 916 
Q 2375 1106 2209 1216 
Q 2094 1291 1634 1406 
Q 1016 1563 777 1677 
Q 538 1791 414 1992 
Q 291 2194 291 2438 
Q 291 2659 392 2848 
Q 494 3038 669 3163 
Q 800 3259 1026 3326 
Q 1253 3394 1513 3394 
Q 1903 3394 2198 3281 
Q 2494 3169 2634 2976 
Q 2775 2784 2828 2463 
L 2278 2388 
Q 2241 2644 2061 2787 
Q 1881 2931 1553 2931 
Q 1166 2931 1000 2803 
Q 834 2675 834 2503 
Q 834 2394 903 2306 
Q 972 2216 1119 2156 
Q 1203 2125 1616 2013 
Q 2213 1853 2448 1751 
Q 2684 1650 2818 1456 
Q 2953 1263 2953 975 
Q 2953 694 2789 445 
Q 2625 197 2315 61 
Q 2006 -75 1616 -75 
Q 969 -75 630 194 
Q 291 463 197 991 
z
" transform="scale(0.015625)"/>
      </defs>
      <use xlink:href="#ArialMT-45"/>
      <use xlink:href="#ArialMT-6e" transform="translate(66.699219 0)"/>
      <use xlink:href="#ArialMT-74" transform="translate(122.314453 0)"/>
      <use xlink:href="#ArialMT-72" transform="translate(150.097656 0)"/>
      <use xlink:href="#ArialMT-61" transform="translate(183.398438 0)"/>
      <use xlink:href="#ArialMT-64" transform="translate(239.013672 0)"/>
      <use xlink:href="#ArialMT-61" transform="translate(294.628906 0)"/>
      <use xlink:href="#ArialMT-73" transform="translate(350.244141 0)"/>
     </g>
    </g>
   </g>
   <g id="FillBetweenPolyCollection_1"/>
   <g id="FillBetweenPolyCollection_2"/>
   <g id="line2d_10">
    <path d="M 84.272727 368.43 
L 120.875598 366.892868 
L 157.478469 365.733609 
L 194.08134 364.852109 
L 230.684211 364.177932 
L 267.287081 363.660157 
L 303.889952 363.261278 
L 340.492823 362.953285 
L 377.095694 362.71506 
L 413.698565 362.530554 
L 450.301435 362.387512 
L 486.904306 362.276529 
L 523.507177 362.19037 
L 560.110048 362.123451 
L 596.712919 362.071458 
L 633.315789 362.03105 
L 669.91866 361.999639 
L 706.521531 361.975218 
L 743.124402 361.95623 
L 779.727273 361.941463 
" clip-path="url(#p37828bacea)" style="fill: none; stroke: #4c72b0; stroke-width: 2; stroke-linecap: round"/>
    <defs>
     <path id="m2cd2a81d67" d="M 0 3 
C 0.795609 3 1.55874 2.683901 2.12132 2.12132 
C 2.683901 1.55874 3 0.795609 3 0 
C 3 -0.795609 2.683901 -1.55874 2.12132 -2.12132 
C 1.55874 -2.683901 0.795609 -3 0 -3 
C -0.795609 -3 -1.55874 -2.683901 -2.12132 -2.12132 
C -2.683901 -1.55874 -3 -0.795609 -3 0 
C -3 0.795609 -2.683901 1.55874 -2.12132 2.12132 
C -1.55874 2.683901 -0.795609 3 0 3 
z
" style="stroke: #ffffff; stroke-width: 0.75"/>
    </defs>
    <g clip-path="url(#p37828bacea)">
     <use xlink:href="#m2cd2a81d67" x="84.272727" y="368.43" style="fill: #4c72b0; stroke: #ffffff; stroke-width: 0.75"/>
     <use xlink:href="#m2cd2a81d67" x="120.875598" y="366.892868" style="fill: #4c72b0; stroke: #ffffff; stroke-width: 0.75"/>
     <use xlink:href="#m2cd2a81d67" x="157.478469" y="365.733609" style="fill: #4c72b0; stroke: #ffffff; stroke-width: 0.75"/>
     <use xlink:href="#m2cd2a81d67" x="194.08134" y="364.852109" style="fill: #4c72b0; stroke: #ffffff; stroke-width: 0.75"/>
     <use xlink:href="#m2cd2a81d67" x="230.684211" y="364.177932" style="fill: #4c72b0; stroke: #ffffff; stroke-width: 0.75"/>
     <use xlink:href="#m2cd2a81d67" x="267.287081" y="363.660157" style="fill: #4c72b0; stroke: #ffffff; stroke-width: 0.75"/>
     <use xlink:href="#m2cd2a81d67" x="303.889952" y="363.261278" style="fill: #4c72b0; stroke: #ffffff; stroke-width: 0.75"/>
     <use xlink:href="#m2cd2a81d67" x="340.492823" y="362.953285" style="fill: #4c72b0; stroke: #ffffff; stroke-width: 0.75"/>
     <use xlink:href="#m2cd2a81d67" x="377.095694" y="362.71506" style="fill: #4c72b0; stroke: #ffffff; stroke-width: 0.75"/>
     <use xlink:href="#m2cd2a81d67" x="413.698565" y="362.530554" style="fill: #4c72b0; stroke: #ffffff; stroke-width: 0.75"/>
     <use xlink:href="#m2cd2a81d67" x="450.301435" y="362.387512" style="fill: #4c72b0; stroke: #ffffff; stroke-width: 0.75"/>
     <use xlink:href="#m2cd2a81d67" x="486.904306" y="362.276529" style="fill: #4c72b0; stroke: #ffffff; stroke-width: 0.75"/>
     <use xlink:href="#m2cd2a81d67" x="523.507177" y="362.19037" style="fill: #4c72b0; stroke: #ffffff; stroke-width: 0.75"/>
     <use xlink:href="#m2cd2a81d67" x="560.110048" y="362.123451" style="fill: #4c72b0; stroke: #ffffff; stroke-width: 0.75"/>
     <use xlink:href="#m2cd2a81d67" x="596.712919" y="362.071458" style="fill: #4c72b0; stroke: #ffffff; stroke-width: 0.75"/>
     <use xlink:href="#m2cd2a81d67" x="633.315789" y="362.03105" style="fill: #4c72b0; stroke: #ffffff; stroke-width: 0.75"/>
     <use xlink:href="#m2cd2a81d67" x="669.91866" y="361.999639" style="fill: #4c72b0; stroke: #ffffff; stroke-width: 0.75"/>
     <use xlink:href="#m2cd2a81d67" x="706.521531" y="361.975218" style="fill: #4c72b0; stroke: #ffffff; stroke-width: 0.75"/>
     <use xlink:href="#m2cd2a81d67" x="743.124402" y="361.95623" style="fill: #4c72b0; stroke: #ffffff; stroke-width: 0.75"/>
     <use xlink:href="#m2cd2a81d67" x="779.727273" y="361.941463" style="fill: #4c72b0; stroke: #ffffff; stroke-width: 0.75"/>
    </g>
   </g>
   <g id="line2d_11">
    <path d="M 84.272727 43.83 
L 120.875598 48.376589 
L 157.478469 50.620392 
L 194.08134 51.793299 
L 230.684211 52.43075 
L 267.287081 52.786802 
L 303.889952 52.989643 
L 340.492823 53.106892 
L 377.095694 53.175404 
L 413.698565 53.215765 
L 450.301435 53.239689 
L 486.904306 53.253938 
L 523.507177 53.262455 
L 560.110048 53.26756 
L 596.712919 53.270626 
L 633.315789 53.272471 
L 669.91866 53.273583 
L 706.521531 53.274253 
L 743.124402 53.274658 
L 779.727273 53.274902 
" clip-path="url(#p37828bacea)" style="fill: none; stroke: #dd8452; stroke-width: 2; stroke-linecap: round"/>
    <defs>
     <path id="m3c54a3d7f8" d="M 0 3 
C 0.795609 3 1.55874 2.683901 2.12132 2.12132 
C 2.683901 1.55874 3 0.795609 3 0 
C 3 -0.795609 2.683901 -1.55874 2.12132 -2.12132 
C 1.55874 -2.683901 0.795609 -3 0 -3 
C -0.795609 -3 -1.55874 -2.683901 -2.12132 -2.12132 
C -2.683901 -1.55874 -3 -0.795609 -3 0 
C -3 0.795609 -2.683901 1.55874 -2.12132 2.12132 
C -1.55874 2.683901 -0.795609 3 0 3 
z
" style="stroke: #ffffff; stroke-width: 0.75"/>
    </defs>
    <g clip-path="url(#p37828bacea)">
     <use xlink:href="#m3c54a3d7f8" x="84.272727" y="43.83" style="fill: #dd8452; stroke: #ffffff; stroke-width: 0.75"/>
     <use xlink:href="#m3c54a3d7f8" x="120.875598" y="48.376589" style="fill: #dd8452; stroke: #ffffff; stroke-width: 0.75"/>
     <use xlink:href="#m3c54a3d7f8" x="157.478469" y="50.620392" style="fill: #dd8452; stroke: #ffffff; stroke-width: 0.75"/>
     <use xlink:href="#m3c54a3d7f8" x="194.08134" y="51.793299" style="fill: #dd8452; stroke: #ffffff; stroke-width: 0.75"/>
     <use xlink:href="#m3c54a3d7f8" x="230.684211" y="52.43075" style="fill: #dd8452; stroke: #ffffff; stroke-width: 0.75"/>
     <use xlink:href="#m3c54a3d7f8" x="267.287081" y="52.786802" style="fill: #dd8452; stroke: #ffffff; stroke-width: 0.75"/>
     <use xlink:href="#m3c54a3d7f8" x="303.889952" y="52.989643" style="fill: #dd8452; stroke: #ffffff; stroke-width: 0.75"/>
     <use xlink:href="#m3c54a3d7f8" x="340.492823" y="53.106892" style="fill: #dd8452; stroke: #ffffff; stroke-width: 0.75"/>
     <use xlink:href="#m3c54a3d7f8" x="377.095694" y="53.175404" style="fill: #dd8452; stroke: #ffffff; stroke-width: 0.75"/>
     <use xlink:href="#m3c54a3d7f8" x="413.698565" y="53.215765" style="fill: #dd8452; stroke: #ffffff; stroke-width: 0.75"/>
     <use xlink:href="#m3c54a3d7f8" x="450.301435" y="53.239689" style="fill: #dd8452; stroke: #ffffff; stroke-width: 0.75"/>
     <use xlink:href="#m3c54a3d7f8" x="486.904306" y="53.253938" style="fill: #dd8452; stroke: #ffffff; stroke-width: 0.75"/>
     <use xlink:href="#m3c54a3d7f8" x="523.507177" y="53.262455" style="fill: #dd8452; stroke: #ffffff; stroke-width: 0.75"/>
     <use xlink:href="#m3c54a3d7f8" x="560.110048" y="53.26756" style="fill: #dd8452; stroke: #ffffff; stroke-width: 0.75"/>
     <use xlink:href="#m3c54a3d7f8" x="596.712919" y="53.270626" style="fill: #dd8452; stroke: #ffffff; stroke-width: 0.75"/>
     <use xlink:href="#m3c54a3d7f8" x="633.315789" y="53.272471" style="fill: #dd8452; stroke: #ffffff; stroke-width: 0.75"/>
     <use xlink:href="#m3c54a3d7f8" x="669.91866" y="53.273583" style="fill: #dd8452; stroke: #ffffff; stroke-width: 0.75"/>
     <use xlink:href="#m3c54a3d7f8" x="706.521531" y="53.274253" style="fill: #dd8452; stroke: #ffffff; stroke-width: 0.75"/>
     <use xlink:href="#m3c54a3d7f8" x="743.124402" y="53.274658" style="fill: #dd8452; stroke: #ffffff; stroke-width: 0.75"/>
     <use xlink:href="#m3c54a3d7f8" x="779.727273" y="53.274902" style="fill: #dd8452; stroke: #ffffff; stroke-width: 0.75"/>
    </g>
   </g>
   <g id="patch_3">
    <path d="M 49.5 384.66 
L 49.5 27.6 
" style="fill: none; stroke: #cccccc; stroke-width: 1.25; stroke-linejoin: miter; stroke-linecap: square"/>
   </g>
   <g id="patch_4">
    <path d="M 814.5 384.66 
L 814.5 27.6 
" style="fill: none; stroke: #cccccc; stroke-width: 1.25; stroke-linejoin: miter; stroke-linecap: square"/>
   </g>
   <g id="patch_5">
    <path d="M 49.5 384.66 
L 814.5 384.66 
" style="fill: none; stroke: #cccccc; stroke-width: 1.25; stroke-linejoin: miter; stroke-linecap: square"/>
   </g>
   <g id="patch_6">
    <path d="M 49.5 27.6 
L 814.5 27.6 
" style="fill: none; stroke: #cccccc; stroke-width: 1.25; stroke-linejoin: miter; stroke-linecap: square"/>
   </g>
   <g id="legend_1">
    <g id="patch_7">
     <path d="M 57.2 67.519688 
L 105.854375 67.519688 
Q 108.054375 67.519688 108.054375 65.319688 
L 108.054375 35.3 
Q 108.054375 33.1 105.854375 33.1 
L 57.2 33.1 
Q 55 33.1 55 35.3 
L 55 65.319688 
Q 55 67.519688 57.2 67.519688 
z
" style="fill: #ffffff; opacity: 0.8; stroke: #cccccc; stroke-linejoin: miter"/>
    </g>
    <g id="line2d_12">
     <path d="M 59.4 41.523594 
L 70.4 41.523594 
L 81.4 41.523594 
" style="fill: none; stroke: #4c72b0; stroke-width: 2; stroke-linecap: round"/>
     <g>
      <use xlink:href="#m2cd2a81d67" x="70.4" y="41.523594" style="fill: #4c72b0; stroke: #ffffff; stroke-width: 0.75"/>
     </g>
    </g>
    <g id="text_8">
     <!-- Y1 -->
     <g style="fill: #262626" transform="translate(90.2 45.373594) scale(0.11 -0.11)">
      <defs>
       <path id="ArialMT-59" d="M 1784 0 
L 1784 1941 
L 19 4581 
L 756 4581 
L 1659 3200 
Q 1909 2813 2125 2425 
Q 2331 2784 2625 3234 
L 3513 4581 
L 4219 4581 
L 2391 1941 
L 2391 0 
L 1784 0 
z
" transform="scale(0.015625)"/>
      </defs>
      <use xlink:href="#ArialMT-59"/>
      <use xlink:href="#ArialMT-31" transform="translate(66.699219 0)"/>
     </g>
    </g>
    <g id="line2d_13">
     <path d="M 59.4 57.083438 
L 70.4 57.083438 
L 81.4 57.083438 
" style="fill: none; stroke: #dd8452; stroke-width: 2; stroke-linecap: round"/>
     <g>
      <use xlink:href="#m3c54a3d7f8" x="70.4" y="57.083438" style="fill: #dd8452; stroke: #ffffff; stroke-width: 0.75"/>
     </g>
    </g>
    <g id="text_9">
     <!-- Y2 -->
     <g style="fill: #262626" transform="translate(90.2 60.933438) scale(0.11 -0.11)">
      <use xlink:href="#ArialMT-59"/>
      <use xlink:href="#ArialMT-32" transform="translate(66.699219 0)"/>
     </g>
    </g>
   </g>
  </g>
  <g id="axes_2">
   <g id="matplotlib.axis_3">
    <g id="ytick_5">
     <g id="line2d_14">
      <path d="M 49.5 348.131849 
L 814.5 348.131849 
" clip-path="url(#p37828bacea)" style="fill: none; stroke: #cccccc; stroke-linecap: round"/>
     </g>
     <g id="line2d_15">
      <defs>
       <path id="m084c5716e5" d="M 0 0 
L 6 0 
" style="stroke: #262626; stroke-width: 1.25"/>
      </defs>
      <g>
       <use xlink:href="#m084c5716e5" x="814.5" y="348.131849" style="fill: #262626; stroke: #262626; stroke-width: 1.25"/>
      </g>
     </g>
     <g id="text_10">
      <!-- 7 -->
      <g style="fill: #262626" transform="translate(824 352.068646) scale(0.11 -0.11)">
       <use xlink:href="#ArialMT-37"/>
      </g>
     </g>
    </g>
    <g id="ytick_6">
     <g id="line2d_16">
      <path d="M 49.5 291.997529 
L 814.5 291.997529 
" clip-path="url(#p37828bacea)" style="fill: none; stroke: #cccccc; stroke-linecap: round"/>
     </g>
     <g id="line2d_17">
      <g>
       <use xlink:href="#m084c5716e5" x="814.5" y="291.997529" style="fill: #262626; stroke: #262626; stroke-width: 1.25"/>
      </g>
     </g>
     <g id="text_11">
      <!-- 8 -->
      <g style="fill: #262626" transform="translate(824 295.934326) scale(0.11 -0.11)">
       <defs>
        <path id="ArialMT-38" d="M 1131 2484 
Q 781 2613 612 2850 
Q 444 3088 444 3419 
Q 444 3919 803 4259 
Q 1163 4600 1759 4600 
Q 2359 4600 2725 4251 
Q 3091 3903 3091 3403 
Q 3091 3084 2923 2848 
Q 2756 2613 2416 2484 
Q 2838 2347 3058 2040 
Q 3278 1734 3278 1309 
Q 3278 722 2862 322 
Q 2447 -78 1769 -78 
Q 1091 -78 675 323 
Q 259 725 259 1325 
Q 259 1772 486 2073 
Q 713 2375 1131 2484 
z
M 1019 3438 
Q 1019 3113 1228 2906 
Q 1438 2700 1772 2700 
Q 2097 2700 2305 2904 
Q 2513 3109 2513 3406 
Q 2513 3716 2298 3927 
Q 2084 4138 1766 4138 
Q 1444 4138 1231 3931 
Q 1019 3725 1019 3438 
z
M 838 1322 
Q 838 1081 952 856 
Q 1066 631 1291 507 
Q 1516 384 1775 384 
Q 2178 384 2440 643 
Q 2703 903 2703 1303 
Q 2703 1709 2433 1975 
Q 2163 2241 1756 2241 
Q 1359 2241 1098 1978 
Q 838 1716 838 1322 
z
" transform="scale(0.015625)"/>
       </defs>
       <use xlink:href="#ArialMT-38"/>
      </g>
     </g>
    </g>
    <g id="ytick_7">
     <g id="line2d_18">
      <path d="M 49.5 235.863208 
L 814.5 235.863208 
" clip-path="url(#p37828bacea)" style="fill: none; stroke: #cccccc; stroke-linecap: round"/>
     </g>
     <g id="line2d_19">
      <g>
       <use xlink:href="#m084c5716e5" x="814.5" y="235.863208" style="fill: #262626; stroke: #262626; stroke-width: 1.25"/>
      </g>
     </g>
     <g id="text_12">
      <!-- 9 -->
      <g style="fill: #262626" transform="translate(824 239.800005) scale(0.11 -0.11)">
       <use xlink:href="#ArialMT-39"/>
      </g>
     </g>
    </g>
    <g id="ytick_8">
     <g id="line2d_20">
      <path d="M 49.5 179.728888 
L 814.5 179.728888 
" clip-path="url(#p37828bacea)" style="fill: none; stroke: #cccccc; stroke-linecap: round"/>
     </g>
     <g id="line2d_21">
      <g>
       <use xlink:href="#m084c5716e5" x="814.5" y="179.728888" style="fill: #262626; stroke: #262626; stroke-width: 1.25"/>
      </g>
     </g>
     <g id="text_13">
      <!-- 10 -->
      <g style="fill: #262626" transform="translate(824 183.665685) scale(0.11 -0.11)">
       <use xlink:href="#ArialMT-31"/>
       <use xlink:href="#ArialMT-30" transform="translate(55.615234 0)"/>
      </g>
     </g>
    </g>
    <g id="ytick_9">
     <g id="line2d_22">
      <path d="M 49.5 123.594568 
L 814.5 123.594568 
" clip-path="url(#p37828bacea)" style="fill: none; stroke: #cccccc; stroke-linecap: round"/>
     </g>
     <g id="line2d_23">
      <g>
       <use xlink:href="#m084c5716e5" x="814.5" y="123.594568" style="fill: #262626; stroke: #262626; stroke-width: 1.25"/>
      </g>
     </g>
     <g id="text_14">
      <!-- 11 -->
      <g style="fill: #262626" transform="translate(824 127.531365) scale(0.11 -0.11)">
       <use xlink:href="#ArialMT-31"/>
       <use xlink:href="#ArialMT-31" transform="translate(48.240234 0)"/>
      </g>
     </g>
    </g>
    <g id="ytick_10">
     <g id="line2d_24">
      <path d="M 49.5 67.460248 
L 814.5 67.460248 
" clip-path="url(#p37828bacea)" style="fill: none; stroke: #cccccc; stroke-linecap: round"/>
     </g>
     <g id="line2d_25">
      <g>
       <use xlink:href="#m084c5716e5" x="814.5" y="67.460248" style="fill: #262626; stroke: #262626; stroke-width: 1.25"/>
      </g>
     </g>
     <g id="text_15">
      <!-- 12 -->
      <g style="fill: #262626" transform="translate(824 71.397045) scale(0.11 -0.11)">
       <use xlink:href="#ArialMT-31"/>
       <use xlink:href="#ArialMT-32" transform="translate(55.615234 0)"/>
      </g>
     </g>
    </g>
    <g id="text_16">
     <!-- Saídas -->
     <g style="fill: #262626" transform="translate(848.823437 224.80875) rotate(-90) scale(0.12 -0.12)">
      <defs>
       <path id="ArialMT-53" d="M 288 1472 
L 859 1522 
Q 900 1178 1048 958 
Q 1197 738 1509 602 
Q 1822 466 2213 466 
Q 2559 466 2825 569 
Q 3091 672 3220 851 
Q 3350 1031 3350 1244 
Q 3350 1459 3225 1620 
Q 3100 1781 2813 1891 
Q 2628 1963 1997 2114 
Q 1366 2266 1113 2400 
Q 784 2572 623 2826 
Q 463 3081 463 3397 
Q 463 3744 659 4045 
Q 856 4347 1234 4503 
Q 1613 4659 2075 4659 
Q 2584 4659 2973 4495 
Q 3363 4331 3572 4012 
Q 3781 3694 3797 3291 
L 3216 3247 
Q 3169 3681 2898 3903 
Q 2628 4125 2100 4125 
Q 1550 4125 1298 3923 
Q 1047 3722 1047 3438 
Q 1047 3191 1225 3031 
Q 1400 2872 2139 2705 
Q 2878 2538 3153 2413 
Q 3553 2228 3743 1945 
Q 3934 1663 3934 1294 
Q 3934 928 3725 604 
Q 3516 281 3123 101 
Q 2731 -78 2241 -78 
Q 1619 -78 1198 103 
Q 778 284 539 648 
Q 300 1013 288 1472 
z
" transform="scale(0.015625)"/>
       <path id="ArialMT-ed" d="M 619 0 
L 619 3319 
L 1181 3319 
L 1181 0 
L 619 0 
z
M 590 3731 
L 1005 4606 
L 1743 4606 
L 1055 3731 
L 590 3731 
z
" transform="scale(0.015625)"/>
      </defs>
      <use xlink:href="#ArialMT-53"/>
      <use xlink:href="#ArialMT-61" transform="translate(66.699219 0)"/>
      <use xlink:href="#ArialMT-ed" transform="translate(122.314453 0)"/>
      <use xlink:href="#ArialMT-64" transform="translate(150.097656 0)"/>
      <use xlink:href="#ArialMT-61" transform="translate(205.712891 0)"/>
      <use xlink:href="#ArialMT-73" transform="translate(261.328125 0)"/>
     </g>
    </g>
   </g>
   <g id="FillBetweenPolyCollection_3"/>
   <g id="FillBetweenPolyCollection_4"/>
   <g id="line2d_26">
    <path d="M 84.272727 43.83 
L 120.875598 43.83 
L 157.478469 43.83 
L 194.08134 43.83 
L 230.684211 43.83 
L 267.287081 43.83 
L 303.889952 43.83 
L 340.492823 43.83 
L 377.095694 43.83 
L 413.698565 43.83 
L 450.301435 43.83 
L 486.904306 43.83 
L 523.507177 43.83 
L 560.110048 43.83 
L 596.712919 43.83 
L 633.315789 43.83 
L 669.91866 43.83 
L 706.521531 43.83 
L 743.124402 43.83 
L 779.727273 43.83 
" clip-path="url(#p37828bacea)" style="fill: none; stroke: #ff0000; stroke-width: 1.5; stroke-linecap: round"/>
    <defs>
     <path id="ma2d57a27a7" d="M 0 3 
C 0.795609 3 1.55874 2.683901 2.12132 2.12132 
C 2.683901 1.55874 3 0.795609 3 0 
C 3 -0.795609 2.683901 -1.55874 2.12132 -2.12132 
C 1.55874 -2.683901 0.795609 -3 0 -3 
C -0.795609 -3 -1.55874 -2.683901 -2.12132 -2.12132 
C -2.683901 -1.55874 -3 -0.795609 -3 0 
C -3 0.795609 -2.683901 1.55874 -2.12132 2.12132 
C -1.55874 2.683901 -0.795609 3 0 3 
z
" style="stroke: #ffffff; stroke-width: 0.75"/>
    </defs>
    <g clip-path="url(#p37828bacea)">
     <use xlink:href="#ma2d57a27a7" x="84.272727" y="43.83" style="fill: #ff0000; stroke: #ffffff; stroke-width: 0.75"/>
     <use xlink:href="#ma2d57a27a7" x="120.875598" y="43.83" style="fill: #ff0000; stroke: #ffffff; stroke-width: 0.75"/>
     <use xlink:href="#ma2d57a27a7" x="157.478469" y="43.83" style="fill: #ff0000; stroke: #ffffff; stroke-width: 0.75"/>
     <use xlink:href="#ma2d57a27a7" x="194.08134" y="43.83" style="fill: #ff0000; stroke: #ffffff; stroke-width: 0.75"/>
     <use xlink:href="#ma2d57a27a7" x="230.684211" y="43.83" style="fill: #ff0000; stroke: #ffffff; stroke-width: 0.75"/>
     <use xlink:href="#ma2d57a27a7" x="267.287081" y="43.83" style="fill: #ff0000; stroke: #ffffff; stroke-width: 0.75"/>
     <use xlink:href="#ma2d57a27a7" x="303.889952" y="43.83" style="fill: #ff0000; stroke: #ffffff; stroke-width: 0.75"/>
     <use xlink:href="#ma2d57a27a7" x="340.492823" y="43.83" style="fill: #ff0000; stroke: #ffffff; stroke-width: 0.75"/>
     <use xlink:href="#ma2d57a27a7" x="377.095694" y="43.83" style="fill: #ff0000; stroke: #ffffff; stroke-width: 0.75"/>
     <use xlink:href="#ma2d57a27a7" x="413.698565" y="43.83" style="fill: #ff0000; stroke: #ffffff; stroke-width: 0.75"/>
     <use xlink:href="#ma2d57a27a7" x="450.301435" y="43.83" style="fill: #ff0000; stroke: #ffffff; stroke-width: 0.75"/>
     <use xlink:href="#ma2d57a27a7" x="486.904306" y="43.83" style="fill: #ff0000; stroke: #ffffff; stroke-width: 0.75"/>
     <use xlink:href="#ma2d57a27a7" x="523.507177" y="43.83" style="fill: #ff0000; stroke: #ffffff; stroke-width: 0.75"/>
     <use xlink:href="#ma2d57a27a7" x="560.110048" y="43.83" style="fill: #ff0000; stroke: #ffffff; stroke-width: 0.75"/>
     <use xlink:href="#ma2d57a27a7" x="596.712919" y="43.83" style="fill: #ff0000; stroke: #ffffff; stroke-width: 0.75"/>
     <use xlink:href="#ma2d57a27a7" x="633.315789" y="43.83" style="fill: #ff0000; stroke: #ffffff; stroke-width: 0.75"/>
     <use xlink:href="#ma2d57a27a7" x="669.91866" y="43.83" style="fill: #ff0000; stroke: #ffffff; stroke-width: 0.75"/>
     <use xlink:href="#ma2d57a27a7" x="706.521531" y="43.83" style="fill: #ff0000; stroke: #ffffff; stroke-width: 0.75"/>
     <use xlink:href="#ma2d57a27a7" x="743.124402" y="43.83" style="fill: #ff0000; stroke: #ffffff; stroke-width: 0.75"/>
     <use xlink:href="#ma2d57a27a7" x="779.727273" y="43.83" style="fill: #ff0000; stroke: #ffffff; stroke-width: 0.75"/>
    </g>
   </g>
   <g id="line2d_27">
    <path d="M 84.272727 368.43 
L 120.875598 368.43 
L 157.478469 368.43 
L 194.08134 368.43 
L 230.684211 368.43 
L 267.287081 368.43 
L 303.889952 368.43 
L 340.492823 368.43 
L 377.095694 368.43 
L 413.698565 368.43 
L 450.301435 368.43 
L 486.904306 368.43 
L 523.507177 368.43 
L 560.110048 368.43 
L 596.712919 368.43 
L 633.315789 368.43 
L 669.91866 368.43 
L 706.521531 368.43 
L 743.124402 368.43 
L 779.727273 368.43 
" clip-path="url(#p37828bacea)" style="fill: none; stroke: #008000; stroke-width: 1.5; stroke-linecap: round"/>
    <defs>
     <path id="m529133bfdd" d="M 0 3 
C 0.795609 3 1.55874 2.683901 2.12132 2.12132 
C 2.683901 1.55874 3 0.795609 3 0 
C 3 -0.795609 2.683901 -1.55874 2.12132 -2.12132 
C 1.55874 -2.683901 0.795609 -3 0 -3 
C -0.795609 -3 -1.55874 -2.683901 -2.12132 -2.12132 
C -2.683901 -1.55874 -3 -0.795609 -3 0 
C -3 0.795609 -2.683901 1.55874 -2.12132 2.12132 
C -1.55874 2.683901 -0.795609 3 0 3 
z
" style="stroke: #ffffff; stroke-width: 0.75"/>
    </defs>
    <g clip-path="url(#p37828bacea)">
     <use xlink:href="#m529133bfdd" x="84.272727" y="368.43" style="fill: #008000; stroke: #ffffff; stroke-width: 0.75"/>
     <use xlink:href="#m529133bfdd" x="120.875598" y="368.43" style="fill: #008000; stroke: #ffffff; stroke-width: 0.75"/>
     <use xlink:href="#m529133bfdd" x="157.478469" y="368.43" style="fill: #008000; stroke: #ffffff; stroke-width: 0.75"/>
     <use xlink:href="#m529133bfdd" x="194.08134" y="368.43" style="fill: #008000; stroke: #ffffff; stroke-width: 0.75"/>
     <use xlink:href="#m529133bfdd" x="230.684211" y="368.43" style="fill: #008000; stroke: #ffffff; stroke-width: 0.75"/>
     <use xlink:href="#m529133bfdd" x="267.287081" y="368.43" style="fill: #008000; stroke: #ffffff; stroke-width: 0.75"/>
     <use xlink:href="#m529133bfdd" x="303.889952" y="368.43" style="fill: #008000; stroke: #ffffff; stroke-width: 0.75"/>
     <use xlink:href="#m529133bfdd" x="340.492823" y="368.43" style="fill: #008000; stroke: #ffffff; stroke-width: 0.75"/>
     <use xlink:href="#m529133bfdd" x="377.095694" y="368.43" style="fill: #008000; stroke: #ffffff; stroke-width: 0.75"/>
     <use xlink:href="#m529133bfdd" x="413.698565" y="368.43" style="fill: #008000; stroke: #ffffff; stroke-width: 0.75"/>
     <use xlink:href="#m529133bfdd" x="450.301435" y="368.43" style="fill: #008000; stroke: #ffffff; stroke-width: 0.75"/>
     <use xlink:href="#m529133bfdd" x="486.904306" y="368.43" style="fill: #008000; stroke: #ffffff; stroke-width: 0.75"/>
     <use xlink:href="#m529133bfdd" x="523.507177" y="368.43" style="fill: #008000; stroke: #ffffff; stroke-width: 0.75"/>
     <use xlink:href="#m529133bfdd" x="560.110048" y="368.43" style="fill: #008000; stroke: #ffffff; stroke-width: 0.75"/>
     <use xlink:href="#m529133bfdd" x="596.712919" y="368.43" style="fill: #008000; stroke: #ffffff; stroke-width: 0.75"/>
     <use xlink:href="#m529133bfdd" x="633.315789" y="368.43" style="fill: #008000; stroke: #ffffff; stroke-width: 0.75"/>
     <use xlink:href="#m529133bfdd" x="669.91866" y="368.43" style="fill: #008000; stroke: #ffffff; stroke-width: 0.75"/>
     <use xlink:href="#m529133bfdd" x="706.521531" y="368.43" style="fill: #008000; stroke: #ffffff; stroke-width: 0.75"/>
     <use xlink:href="#m529133bfdd" x="743.124402" y="368.43" style="fill: #008000; stroke: #ffffff; stroke-width: 0.75"/>
     <use xlink:href="#m529133bfdd" x="779.727273" y="368.43" style="fill: #008000; stroke: #ffffff; stroke-width: 0.75"/>
    </g>
   </g>
   <g id="patch_8">
    <path d="M 49.5 384.66 
L 49.5 27.6 
" style="fill: none; stroke: #cccccc; stroke-width: 1.25; stroke-linejoin: miter; stroke-linecap: square"/>
   </g>
   <g id="patch_9">
    <path d="M 814.5 384.66 
L 814.5 27.6 
" style="fill: none; stroke: #cccccc; stroke-width: 1.25; stroke-linejoin: miter; stroke-linecap: square"/>
   </g>
   <g id="patch_10">
    <path d="M 49.5 384.66 
L 814.5 384.66 
" style="fill: none; stroke: #cccccc; stroke-width: 1.25; stroke-linejoin: miter; stroke-linecap: square"/>
   </g>
   <g id="patch_11">
    <path d="M 49.5 27.6 
L 814.5 27.6 
" style="fill: none; stroke: #cccccc; stroke-width: 1.25; stroke-linejoin: miter; stroke-linecap: square"/>
   </g>
   <g id="text_17">
    <!-- Entradas e Saídas do Sistema -->
    <g style="fill: #262626" transform="translate(350.957812 21.6) scale(0.12 -0.12)">
     <defs>
      <path id="ArialMT-20" transform="scale(0.015625)"/>
      <path id="ArialMT-65" d="M 2694 1069 
L 3275 997 
Q 3138 488 2766 206 
Q 2394 -75 1816 -75 
Q 1088 -75 661 373 
Q 234 822 234 1631 
Q 234 2469 665 2931 
Q 1097 3394 1784 3394 
Q 2450 3394 2872 2941 
Q 3294 2488 3294 1666 
Q 3294 1616 3291 1516 
L 816 1516 
Q 847 969 1125 678 
Q 1403 388 1819 388 
Q 2128 388 2347 550 
Q 2566 713 2694 1069 
z
M 847 1978 
L 2700 1978 
Q 2663 2397 2488 2606 
Q 2219 2931 1791 2931 
Q 1403 2931 1139 2672 
Q 875 2413 847 1978 
z
" transform="scale(0.015625)"/>
      <path id="ArialMT-6f" d="M 213 1659 
Q 213 2581 725 3025 
Q 1153 3394 1769 3394 
Q 2453 3394 2887 2945 
Q 3322 2497 3322 1706 
Q 3322 1066 3130 698 
Q 2938 331 2570 128 
Q 2203 -75 1769 -75 
Q 1072 -75 642 372 
Q 213 819 213 1659 
z
M 791 1659 
Q 791 1022 1069 705 
Q 1347 388 1769 388 
Q 2188 388 2466 706 
Q 2744 1025 2744 1678 
Q 2744 2294 2464 2611 
Q 2184 2928 1769 2928 
Q 1347 2928 1069 2612 
Q 791 2297 791 1659 
z
" transform="scale(0.015625)"/>
      <path id="ArialMT-69" d="M 425 3934 
L 425 4581 
L 988 4581 
L 988 3934 
L 425 3934 
z
M 425 0 
L 425 3319 
L 988 3319 
L 988 0 
L 425 0 
z
" transform="scale(0.015625)"/>
      <path id="ArialMT-6d" d="M 422 0 
L 422 3319 
L 925 3319 
L 925 2853 
Q 1081 3097 1340 3245 
Q 1600 3394 1931 3394 
Q 2300 3394 2536 3241 
Q 2772 3088 2869 2813 
Q 3263 3394 3894 3394 
Q 4388 3394 4653 3120 
Q 4919 2847 4919 2278 
L 4919 0 
L 4359 0 
L 4359 2091 
Q 4359 2428 4304 2576 
Q 4250 2725 4106 2815 
Q 3963 2906 3769 2906 
Q 3419 2906 3187 2673 
Q 2956 2441 2956 1928 
L 2956 0 
L 2394 0 
L 2394 2156 
Q 2394 2531 2256 2718 
Q 2119 2906 1806 2906 
Q 1569 2906 1367 2781 
Q 1166 2656 1075 2415 
Q 984 2175 984 1722 
L 984 0 
L 422 0 
z
" transform="scale(0.015625)"/>
     </defs>
     <use xlink:href="#ArialMT-45"/>
     <use xlink:href="#ArialMT-6e" transform="translate(66.699219 0)"/>
     <use xlink:href="#ArialMT-74" transform="translate(122.314453 0)"/>
     <use xlink:href="#ArialMT-72" transform="translate(150.097656 0)"/>
     <use xlink:href="#ArialMT-61" transform="translate(183.398438 0)"/>
     <use xlink:href="#ArialMT-64" transform="translate(239.013672 0)"/>
     <use xlink:href="#ArialMT-61" transform="translate(294.628906 0)"/>
     <use xlink:href="#ArialMT-73" transform="translate(350.244141 0)"/>
     <use xlink:href="#ArialMT-20" transform="translate(400.244141 0)"/>
     <use xlink:href="#ArialMT-65" transform="translate(428.027344 0)"/>
     <use xlink:href="#ArialMT-20" transform="translate(483.642578 0)"/>
     <use xlink:href="#ArialMT-53" transform="translate(511.425781 0)"/>
     <use xlink:href="#ArialMT-61" transform="translate(578.125 0)"/>
     <use xlink:href="#ArialMT-ed" transform="translate(633.740234 0)"/>
     <use xlink:href="#ArialMT-64" transform="translate(661.523438 0)"/>
     <use xlink:href="#ArialMT-61" transform="translate(717.138672 0)"/>
     <use xlink:href="#ArialMT-73" transform="translate(772.753906 0)"/>
     <use xlink:href="#ArialMT-20" transform="translate(822.753906 0)"/>
     <use xlink:href="#ArialMT-64" transform="translate(850.537109 0)"/>
     <use xlink:href="#ArialMT-6f" transform="translate(906.152344 0)"/>
     <use xlink:href="#ArialMT-20" transform="translate(961.767578 0)"/>
     <use xlink:href="#ArialMT-53" transform="translate(989.550781 0)"/>
     <use xlink:href="#ArialMT-69" transform="translate(1056.25 0)"/>
     <use xlink:href="#ArialMT-73" transform="translate(1078.466797 0)"/>
     <use xlink:href="#ArialMT-74" transform="translate(1128.466797 0)"/>
     <use xlink:href="#ArialMT-65" transform="translate(1156.25 0)"/>
     <use xlink:href="#ArialMT-6d" transform="translate(1211.865234 0)"/>
     <use xlink:href="#ArialMT-61" transform="translate(1295.166016 0)"/>
    </g>
   </g>
   <g id="legend_2">
    <g id="patch_12">
     <path d="M 759.381406 223.339844 
L 806.8 223.339844 
Q 809 223.339844 809 221.139844 
L 809 191.120156 
Q 809 188.920156 806.8 188.920156 
L 759.381406 188.920156 
Q 757.181406 188.920156 757.181406 191.120156 
L 757.181406 221.139844 
Q 757.181406 223.339844 759.381406 223.339844 
z
" style="fill: #ffffff; opacity: 0.8; stroke: #cccccc; stroke-linejoin: miter"/>
    </g>
    <g id="line2d_28">
     <path d="M 761.581406 197.34375 
L 772.581406 197.34375 
L 783.581406 197.34375 
" style="fill: none; stroke: #ff0000; stroke-width: 1.5; stroke-linecap: round"/>
     <g>
      <use xlink:href="#ma2d57a27a7" x="772.581406" y="197.34375" style="fill: #ff0000; stroke: #ffffff; stroke-width: 0.75"/>
     </g>
    </g>
    <g id="text_18">
     <!-- f -->
     <g style="fill: #262626" transform="translate(792.381406 201.19375) scale(0.11 -0.11)">
      <defs>
       <path id="ArialMT-66" d="M 556 0 
L 556 2881 
L 59 2881 
L 59 3319 
L 556 3319 
L 556 3672 
Q 556 4006 616 4169 
Q 697 4388 901 4523 
Q 1106 4659 1475 4659 
Q 1713 4659 2000 4603 
L 1916 4113 
Q 1741 4144 1584 4144 
Q 1328 4144 1222 4034 
Q 1116 3925 1116 3625 
L 1116 3319 
L 1763 3319 
L 1763 2881 
L 1116 2881 
L 1116 0 
L 556 0 
z
" transform="scale(0.015625)"/>
      </defs>
      <use xlink:href="#ArialMT-66"/>
     </g>
    </g>
    <g id="line2d_29">
     <path d="M 761.581406 212.903594 
L 772.581406 212.903594 
L 783.581406 212.903594 
" style="fill: none; stroke: #008000; stroke-width: 1.5; stroke-linecap: round"/>
     <g>
      <use xlink:href="#m529133bfdd" x="772.581406" y="212.903594" style="fill: #008000; stroke: #ffffff; stroke-width: 0.75"/>
     </g>
    </g>
    <g id="text_19">
     <!-- Zc -->
     <g style="fill: #262626" transform="translate(792.381406 216.753594) scale(0.11 -0.11)">
      <defs>
       <path id="ArialMT-5a" d="M 128 0 
L 128 563 
L 2475 3497 
Q 2725 3809 2950 4041 
L 394 4041 
L 394 4581 
L 3675 4581 
L 3675 4041 
L 1103 863 
L 825 541 
L 3750 541 
L 3750 0 
L 128 0 
z
" transform="scale(0.015625)"/>
       <path id="ArialMT-63" d="M 2588 1216 
L 3141 1144 
Q 3050 572 2676 248 
Q 2303 -75 1759 -75 
Q 1078 -75 664 370 
Q 250 816 250 1647 
Q 250 2184 428 2587 
Q 606 2991 970 3192 
Q 1334 3394 1763 3394 
Q 2303 3394 2647 3120 
Q 2991 2847 3088 2344 
L 2541 2259 
Q 2463 2594 2264 2762 
Q 2066 2931 1784 2931 
Q 1359 2931 1093 2626 
Q 828 2322 828 1663 
Q 828 994 1084 691 
Q 1341 388 1753 388 
Q 2084 388 2306 591 
Q 2528 794 2588 1216 
z
" transform="scale(0.015625)"/>
      </defs>
      <use xlink:href="#ArialMT-5a"/>
      <use xlink:href="#ArialMT-63" transform="translate(61.083984 0)"/>
     </g>
    </g>
   </g>
  </g>
 </g>
 <defs>
  <clipPath id="p37828bacea">
   <rect x="49.5" y="27.6" width="765" height="357.06"/>
  </clipPath>
 </defs>
</svg>
